<mxfile host="app.diagrams.net" modified="2023-10-07T07:07:55.944Z" agent="Mozilla/5.0 (Windows NT 10.0; Win64; x64) AppleWebKit/537.36 (KHTML, like Gecko) Chrome/117.0.0.0 Safari/537.36" etag="jbvsbZt_4AWDZqYZf-R2" version="22.0.0" type="device">
  <diagram name="Page-1" id="ur0tPwioX4A2eC6EFf4B">
    <mxGraphModel dx="825" dy="1647" grid="1" gridSize="10" guides="1" tooltips="1" connect="1" arrows="1" fold="1" page="1" pageScale="1" pageWidth="827" pageHeight="1169" math="0" shadow="0">
      <root>
        <mxCell id="0" />
        <mxCell id="1" parent="0" />
        <mxCell id="MGPueRf3ozCcIb6gsdJU-1" value="" style="rounded=0;whiteSpace=wrap;html=1;" vertex="1" parent="1">
          <mxGeometry x="207.5" y="-20" width="410" height="560" as="geometry" />
        </mxCell>
        <mxCell id="MGPueRf3ozCcIb6gsdJU-2" value="User&lt;br&gt;&lt;br&gt;" style="shape=umlActor;verticalLabelPosition=bottom;verticalAlign=top;html=1;outlineConnect=0;" vertex="1" parent="1">
          <mxGeometry x="100" y="230" width="30" height="60" as="geometry" />
        </mxCell>
        <mxCell id="MGPueRf3ozCcIb6gsdJU-3" value="System" style="shape=umlActor;verticalLabelPosition=bottom;verticalAlign=top;html=1;outlineConnect=0;" vertex="1" parent="1">
          <mxGeometry x="700" y="230" width="30" height="60" as="geometry" />
        </mxCell>
        <mxCell id="MGPueRf3ozCcIb6gsdJU-4" value="" style="ellipse;whiteSpace=wrap;html=1;" vertex="1" parent="1">
          <mxGeometry x="355" y="50" width="115" height="50" as="geometry" />
        </mxCell>
        <mxCell id="MGPueRf3ozCcIb6gsdJU-5" value="User opens the system" style="text;html=1;strokeColor=none;fillColor=none;align=center;verticalAlign=middle;whiteSpace=wrap;rounded=0;" vertex="1" parent="1">
          <mxGeometry x="384" y="60" width="60" height="30" as="geometry" />
        </mxCell>
        <mxCell id="MGPueRf3ozCcIb6gsdJU-6" value="" style="ellipse;whiteSpace=wrap;html=1;" vertex="1" parent="1">
          <mxGeometry x="250" y="130" width="100" height="40" as="geometry" />
        </mxCell>
        <mxCell id="MGPueRf3ozCcIb6gsdJU-8" value="" style="ellipse;whiteSpace=wrap;html=1;" vertex="1" parent="1">
          <mxGeometry x="460" y="130" width="100" height="40" as="geometry" />
        </mxCell>
        <mxCell id="MGPueRf3ozCcIb6gsdJU-9" value="Encode option" style="text;html=1;strokeColor=none;fillColor=none;align=center;verticalAlign=middle;whiteSpace=wrap;rounded=0;" vertex="1" parent="1">
          <mxGeometry x="270" y="135" width="60" height="30" as="geometry" />
        </mxCell>
        <mxCell id="MGPueRf3ozCcIb6gsdJU-11" value="Decode option" style="text;html=1;strokeColor=none;fillColor=none;align=center;verticalAlign=middle;whiteSpace=wrap;rounded=0;" vertex="1" parent="1">
          <mxGeometry x="480" y="135" width="60" height="30" as="geometry" />
        </mxCell>
        <mxCell id="MGPueRf3ozCcIb6gsdJU-12" value="" style="endArrow=classic;html=1;rounded=0;exitX=0;exitY=1;exitDx=0;exitDy=0;entryX=1;entryY=0;entryDx=0;entryDy=0;dashed=1;" edge="1" parent="1" source="MGPueRf3ozCcIb6gsdJU-4" target="MGPueRf3ozCcIb6gsdJU-9">
          <mxGeometry width="50" height="50" relative="1" as="geometry">
            <mxPoint x="480" y="290" as="sourcePoint" />
            <mxPoint x="530" y="240" as="targetPoint" />
          </mxGeometry>
        </mxCell>
        <mxCell id="MGPueRf3ozCcIb6gsdJU-13" value="" style="endArrow=classic;html=1;rounded=0;exitX=1;exitY=1;exitDx=0;exitDy=0;entryX=0.25;entryY=0;entryDx=0;entryDy=0;dashed=1;" edge="1" parent="1" source="MGPueRf3ozCcIb6gsdJU-4" target="MGPueRf3ozCcIb6gsdJU-11">
          <mxGeometry width="50" height="50" relative="1" as="geometry">
            <mxPoint x="381" y="102" as="sourcePoint" />
            <mxPoint x="340" y="145" as="targetPoint" />
          </mxGeometry>
        </mxCell>
        <mxCell id="MGPueRf3ozCcIb6gsdJU-16" value="&amp;lt;includes&amp;gt;" style="text;html=1;strokeColor=none;fillColor=none;align=center;verticalAlign=middle;whiteSpace=wrap;rounded=0;" vertex="1" parent="1">
          <mxGeometry x="480" y="90" width="60" height="30" as="geometry" />
        </mxCell>
        <mxCell id="MGPueRf3ozCcIb6gsdJU-17" value="" style="ellipse;whiteSpace=wrap;html=1;" vertex="1" parent="1">
          <mxGeometry x="315" y="210" width="110" height="50" as="geometry" />
        </mxCell>
        <mxCell id="MGPueRf3ozCcIb6gsdJU-18" value="Upload video" style="text;html=1;strokeColor=none;fillColor=none;align=center;verticalAlign=middle;whiteSpace=wrap;rounded=0;" vertex="1" parent="1">
          <mxGeometry x="340" y="220" width="60" height="30" as="geometry" />
        </mxCell>
        <mxCell id="MGPueRf3ozCcIb6gsdJU-20" value="" style="endArrow=none;html=1;rounded=0;entryX=0;entryY=0.5;entryDx=0;entryDy=0;exitX=0.5;exitY=0;exitDx=0;exitDy=0;exitPerimeter=0;" edge="1" parent="1" source="MGPueRf3ozCcIb6gsdJU-2" target="MGPueRf3ozCcIb6gsdJU-4">
          <mxGeometry width="50" height="50" relative="1" as="geometry">
            <mxPoint x="350" y="260" as="sourcePoint" />
            <mxPoint x="400" y="210" as="targetPoint" />
            <Array as="points">
              <mxPoint x="170" y="120" />
            </Array>
          </mxGeometry>
        </mxCell>
        <mxCell id="MGPueRf3ozCcIb6gsdJU-21" value="" style="endArrow=none;html=1;rounded=0;entryX=1;entryY=0.5;entryDx=0;entryDy=0;exitX=0.5;exitY=0;exitDx=0;exitDy=0;exitPerimeter=0;" edge="1" parent="1" source="MGPueRf3ozCcIb6gsdJU-3" target="MGPueRf3ozCcIb6gsdJU-4">
          <mxGeometry width="50" height="50" relative="1" as="geometry">
            <mxPoint x="125" y="240" as="sourcePoint" />
            <mxPoint x="365" y="85" as="targetPoint" />
            <Array as="points">
              <mxPoint x="690" y="120" />
            </Array>
          </mxGeometry>
        </mxCell>
        <mxCell id="MGPueRf3ozCcIb6gsdJU-22" value="" style="endArrow=none;html=1;rounded=0;entryX=0.75;entryY=0.1;entryDx=0;entryDy=0;entryPerimeter=0;exitX=0;exitY=0.5;exitDx=0;exitDy=0;" edge="1" parent="1" source="MGPueRf3ozCcIb6gsdJU-17" target="MGPueRf3ozCcIb6gsdJU-2">
          <mxGeometry width="50" height="50" relative="1" as="geometry">
            <mxPoint x="380" y="230" as="sourcePoint" />
            <mxPoint x="430" y="180" as="targetPoint" />
          </mxGeometry>
        </mxCell>
        <mxCell id="MGPueRf3ozCcIb6gsdJU-23" value="" style="ellipse;whiteSpace=wrap;html=1;" vertex="1" parent="1">
          <mxGeometry x="255" y="340" width="100" height="50" as="geometry" />
        </mxCell>
        <mxCell id="MGPueRf3ozCcIb6gsdJU-24" value="Enter hidden Message" style="text;html=1;strokeColor=none;fillColor=none;align=center;verticalAlign=middle;whiteSpace=wrap;rounded=0;" vertex="1" parent="1">
          <mxGeometry x="250" y="350" width="105" height="30" as="geometry" />
        </mxCell>
        <mxCell id="MGPueRf3ozCcIb6gsdJU-25" value="" style="ellipse;whiteSpace=wrap;html=1;" vertex="1" parent="1">
          <mxGeometry x="375" y="285" width="90" height="50" as="geometry" />
        </mxCell>
        <mxCell id="MGPueRf3ozCcIb6gsdJU-27" value="Encrypt" style="text;html=1;strokeColor=none;fillColor=none;align=center;verticalAlign=middle;whiteSpace=wrap;rounded=0;" vertex="1" parent="1">
          <mxGeometry x="390" y="295" width="60" height="30" as="geometry" />
        </mxCell>
        <mxCell id="MGPueRf3ozCcIb6gsdJU-29" value="" style="endArrow=classic;html=1;rounded=0;exitX=0;exitY=0.5;exitDx=0;exitDy=0;entryX=0.5;entryY=0;entryDx=0;entryDy=0;dashed=1;" edge="1" parent="1" source="MGPueRf3ozCcIb6gsdJU-25" target="MGPueRf3ozCcIb6gsdJU-23">
          <mxGeometry width="50" height="50" relative="1" as="geometry">
            <mxPoint x="382" y="103" as="sourcePoint" />
            <mxPoint x="340" y="145" as="targetPoint" />
          </mxGeometry>
        </mxCell>
        <mxCell id="MGPueRf3ozCcIb6gsdJU-30" value="&amp;lt;includes&amp;gt;" style="text;html=1;strokeColor=none;fillColor=none;align=center;verticalAlign=middle;whiteSpace=wrap;rounded=0;" vertex="1" parent="1">
          <mxGeometry x="280" y="90" width="60" height="30" as="geometry" />
        </mxCell>
        <mxCell id="MGPueRf3ozCcIb6gsdJU-31" value="&amp;lt;includes&amp;gt;" style="text;html=1;strokeColor=none;fillColor=none;align=center;verticalAlign=middle;whiteSpace=wrap;rounded=0;" vertex="1" parent="1">
          <mxGeometry x="330" y="320" width="60" height="30" as="geometry" />
        </mxCell>
        <mxCell id="MGPueRf3ozCcIb6gsdJU-32" value="" style="endArrow=none;html=1;rounded=0;exitX=0.009;exitY=0.324;exitDx=0;exitDy=0;exitPerimeter=0;entryX=1;entryY=0.3333333333333333;entryDx=0;entryDy=0;entryPerimeter=0;" edge="1" parent="1" source="MGPueRf3ozCcIb6gsdJU-25" target="MGPueRf3ozCcIb6gsdJU-2">
          <mxGeometry width="50" height="50" relative="1" as="geometry">
            <mxPoint x="380" y="310" as="sourcePoint" />
            <mxPoint x="430" y="260" as="targetPoint" />
          </mxGeometry>
        </mxCell>
        <mxCell id="MGPueRf3ozCcIb6gsdJU-33" value="" style="endArrow=none;html=1;rounded=0;entryX=0;entryY=0.3333333333333333;entryDx=0;entryDy=0;entryPerimeter=0;exitX=0.944;exitY=0.3;exitDx=0;exitDy=0;exitPerimeter=0;" edge="1" parent="1" source="MGPueRf3ozCcIb6gsdJU-25" target="MGPueRf3ozCcIb6gsdJU-3">
          <mxGeometry width="50" height="50" relative="1" as="geometry">
            <mxPoint x="380" y="310" as="sourcePoint" />
            <mxPoint x="430" y="260" as="targetPoint" />
          </mxGeometry>
        </mxCell>
        <mxCell id="MGPueRf3ozCcIb6gsdJU-34" value="" style="ellipse;whiteSpace=wrap;html=1;" vertex="1" parent="1">
          <mxGeometry x="370" y="430" width="100" height="40" as="geometry" />
        </mxCell>
        <mxCell id="MGPueRf3ozCcIb6gsdJU-35" value="Decrypt" style="text;html=1;strokeColor=none;fillColor=none;align=center;verticalAlign=middle;whiteSpace=wrap;rounded=0;" vertex="1" parent="1">
          <mxGeometry x="390" y="435" width="60" height="30" as="geometry" />
        </mxCell>
        <mxCell id="MGPueRf3ozCcIb6gsdJU-36" value="" style="endArrow=none;html=1;rounded=0;entryX=0.994;entryY=0.408;entryDx=0;entryDy=0;entryPerimeter=0;exitX=0.5;exitY=0.5;exitDx=0;exitDy=0;exitPerimeter=0;" edge="1" parent="1" source="MGPueRf3ozCcIb6gsdJU-3" target="MGPueRf3ozCcIb6gsdJU-34">
          <mxGeometry width="50" height="50" relative="1" as="geometry">
            <mxPoint x="370" y="440" as="sourcePoint" />
            <mxPoint x="420" y="390" as="targetPoint" />
          </mxGeometry>
        </mxCell>
        <mxCell id="MGPueRf3ozCcIb6gsdJU-37" value="" style="ellipse;whiteSpace=wrap;html=1;" vertex="1" parent="1">
          <mxGeometry x="440" y="350" width="100" height="40" as="geometry" />
        </mxCell>
        <mxCell id="MGPueRf3ozCcIb6gsdJU-38" value="Enter secret key" style="text;html=1;strokeColor=none;fillColor=none;align=center;verticalAlign=middle;whiteSpace=wrap;rounded=0;" vertex="1" parent="1">
          <mxGeometry x="460" y="355" width="60" height="30" as="geometry" />
        </mxCell>
        <mxCell id="MGPueRf3ozCcIb6gsdJU-40" value="" style="endArrow=classic;html=1;rounded=0;exitX=1;exitY=0.5;exitDx=0;exitDy=0;dashed=1;" edge="1" parent="1" source="MGPueRf3ozCcIb6gsdJU-25" target="MGPueRf3ozCcIb6gsdJU-37">
          <mxGeometry width="50" height="50" relative="1" as="geometry">
            <mxPoint x="382" y="103" as="sourcePoint" />
            <mxPoint x="340" y="145" as="targetPoint" />
          </mxGeometry>
        </mxCell>
        <mxCell id="MGPueRf3ozCcIb6gsdJU-41" value="&amp;lt;includes&amp;gt;" style="text;html=1;strokeColor=none;fillColor=none;align=center;verticalAlign=middle;whiteSpace=wrap;rounded=0;" vertex="1" parent="1">
          <mxGeometry x="470" y="305" width="60" height="30" as="geometry" />
        </mxCell>
        <mxCell id="MGPueRf3ozCcIb6gsdJU-42" value="" style="ellipse;whiteSpace=wrap;html=1;" vertex="1" parent="1">
          <mxGeometry x="270" y="470" width="100" height="40" as="geometry" />
        </mxCell>
        <mxCell id="MGPueRf3ozCcIb6gsdJU-43" value="" style="ellipse;whiteSpace=wrap;html=1;" vertex="1" parent="1">
          <mxGeometry x="470" y="470" width="100" height="40" as="geometry" />
        </mxCell>
        <mxCell id="MGPueRf3ozCcIb6gsdJU-44" value="Show hidden message" style="text;html=1;strokeColor=none;fillColor=none;align=center;verticalAlign=middle;whiteSpace=wrap;rounded=0;" vertex="1" parent="1">
          <mxGeometry x="280" y="470" width="90" height="40" as="geometry" />
        </mxCell>
        <mxCell id="MGPueRf3ozCcIb6gsdJU-45" value="Enter secret key" style="text;html=1;strokeColor=none;fillColor=none;align=center;verticalAlign=middle;whiteSpace=wrap;rounded=0;" vertex="1" parent="1">
          <mxGeometry x="490" y="475" width="60" height="30" as="geometry" />
        </mxCell>
        <mxCell id="MGPueRf3ozCcIb6gsdJU-47" value="" style="endArrow=classic;html=1;rounded=0;exitX=0;exitY=0.5;exitDx=0;exitDy=0;entryX=0.25;entryY=0;entryDx=0;entryDy=0;dashed=1;" edge="1" parent="1" source="MGPueRf3ozCcIb6gsdJU-34" target="MGPueRf3ozCcIb6gsdJU-44">
          <mxGeometry width="50" height="50" relative="1" as="geometry">
            <mxPoint x="382" y="103" as="sourcePoint" />
            <mxPoint x="340" y="145" as="targetPoint" />
          </mxGeometry>
        </mxCell>
        <mxCell id="MGPueRf3ozCcIb6gsdJU-48" value="" style="endArrow=classic;html=1;rounded=0;exitX=1;exitY=1;exitDx=0;exitDy=0;entryX=0.25;entryY=0;entryDx=0;entryDy=0;dashed=1;" edge="1" parent="1" source="MGPueRf3ozCcIb6gsdJU-34" target="MGPueRf3ozCcIb6gsdJU-45">
          <mxGeometry width="50" height="50" relative="1" as="geometry">
            <mxPoint x="392" y="113" as="sourcePoint" />
            <mxPoint x="350" y="155" as="targetPoint" />
          </mxGeometry>
        </mxCell>
        <mxCell id="MGPueRf3ozCcIb6gsdJU-49" value="&amp;lt;includes&amp;gt;" style="text;html=1;strokeColor=none;fillColor=none;align=center;verticalAlign=middle;whiteSpace=wrap;rounded=0;" vertex="1" parent="1">
          <mxGeometry x="295" y="430" width="60" height="30" as="geometry" />
        </mxCell>
        <mxCell id="MGPueRf3ozCcIb6gsdJU-50" value="&amp;lt;includes&amp;gt;" style="text;html=1;strokeColor=none;fillColor=none;align=center;verticalAlign=middle;whiteSpace=wrap;rounded=0;" vertex="1" parent="1">
          <mxGeometry x="480" y="445" width="60" height="30" as="geometry" />
        </mxCell>
      </root>
    </mxGraphModel>
  </diagram>
</mxfile>
